Coordinates
version=1
nRows=13
nColumns=40
inDegrees=yes

Units are S.I. units (second, meters, Newtons, ...)
Angles are in degrees.

endheader
time	pelvis_tilt	pelvis_list	pelvis_rotation	pelvis_tx	pelvis_ty	pelvis_tz	hip_flexion_r	hip_adduction_r	hip_rotation_r	knee_angle_r	knee_angle_r_beta	ankle_angle_r	subtalar_angle_r	mtp_angle_r	hip_flexion_l	hip_adduction_l	hip_rotation_l	knee_angle_l	knee_angle_l_beta	ankle_angle_l	subtalar_angle_l	mtp_angle_l	lumbar_extension	lumbar_bending	lumbar_rotation	arm_flex_r	arm_add_r	arm_rot_r	elbow_flex_r	pro_sup_r	wrist_flex_r	wrist_dev_r	arm_flex_l	arm_add_l	arm_rot_l	elbow_flex_l	pro_sup_l	wrist_flex_l	wrist_dev_l
     56.84692857	     -4.12082926	     -3.15979474	     -4.62342406	      1.01064171	      0.92247284	      0.40957938	     28.64781102	     -0.68799064	    -12.83136782	     19.59683454	     19.59683454	      3.94876910	     -1.89892478	      5.07812862	     -0.92335941	     -3.22498395	    -10.64150611	     12.52012155	     12.52012155	     18.33748329	     -5.40208655	     -4.58798435	     -8.62004530	      6.15211744	      1.40454016	    -15.36416390	    -12.75258573	    -15.90930202	     22.69267131	     47.69025760	      0.00000000	      0.00000000	     18.08982518	    -14.62073976	    -11.41084141	     96.92632461	     48.42629194	      0.00000000	      0.00000000
     56.85885714	     -4.00484376	     -3.23370848	     -4.53411502	      1.01250476	      0.92121106	      0.41167542	     27.92282419	     -0.53914220	    -13.39460686	     19.39706355	     19.39706355	      3.87011515	     -2.07950384	      5.11306679	     -1.79222351	     -3.40052948	    -10.73057620	     12.35650738	     12.35650738	     18.80139252	     -5.09032920	     -4.45136662	     -8.44131050	      6.17624953	      1.31467945	    -15.09365325	    -12.67911474	    -15.91729400	     22.83869233	     47.68176863	      0.00000000	      0.00000000	     17.81730811	    -14.56094072	    -11.00856507	     96.59344092	     48.39613007	      0.00000000	      0.00000000
     56.87078571	     -3.85846217	     -3.32168525	     -4.41835402	      1.01443378	      0.92009016	      0.41384686	     27.14297090	     -0.35492990	    -13.76652428	     19.32575132	     19.32575132	      3.62354332	     -2.51879162	      4.65085951	     -2.60888608	     -3.63978970	    -10.93100647	     12.38782704	     12.38782704	     19.55624097	     -4.42183025	     -3.83294494	     -8.26321908	      6.24709756	      1.26113522	    -14.66993241	    -12.61976738	    -15.92153726	     22.94822182	     47.66892558	      0.00000000	      0.00000000	     17.58636165	    -14.73584838	    -10.28204513	     95.64693882	     48.33904341	      0.00000000	      0.00000000
     56.88271429	     -3.91082840	     -3.38380627	     -4.25154270	      1.01618671	      0.91870767	      0.41616617	     26.61862214	     -0.14157590	    -13.84133394	     19.35046577	     19.35046577	      2.74145463	     -3.61300614	      2.27630659	     -2.77829611	     -4.02663407	    -11.29716078	     13.29853179	     13.29853179	     21.14770581	     -3.31851928	     -1.73456344	     -7.83745217	      6.26206973	      1.70772284	    -14.37995632	    -12.33505827	    -15.93383511	     22.60474593	     47.64792245	      0.00000000	      0.00000000	     17.76862946	    -14.38491687	     -8.98440937	     94.02347726	     48.25554049	      0.00000000	      0.00000000
     56.89464286	     -3.89160318	     -3.47347394	     -4.06868506	      1.01788613	      0.91768086	      0.41846752	     26.11136867	      0.03810122	    -13.97036288	     19.67098579	     19.67098579	      2.55173725	     -4.28150181	      1.30008757	     -3.07486650	     -4.34835288	    -11.11704766	     13.97429364	     13.97429364	     21.68827686	     -3.41914441	     -1.31359712	     -7.57231397	      6.30850524	      1.56803628	    -13.67053105	    -12.12616686	    -15.98862080	     22.76745867	     47.63333015	      0.00000000	      0.00000000	     17.23696118	    -14.21514812	     -8.71967578	     93.15320412	     48.23313501	      0.00000000	      0.00000000
     56.90657143	     -3.89143498	     -3.61206385	     -3.89475817	      1.01937869	      0.91690005	      0.42090602	     25.65966224	      0.30779888	    -13.94224286	     20.04763771	     20.04763771	      2.48681778	     -5.07524191	      0.44372458	     -3.13816463	     -4.78183461	    -10.91417056	     15.02039739	     15.02039739	     22.13746245	     -3.69093198	     -1.13219202	     -7.32405022	      6.39730157	      1.54106403	    -12.82474197	    -11.94632116	    -15.95177239	     22.75896249	     47.62508850	      0.00000000	      0.00000000	     16.72765159	    -13.90527727	     -8.36584644	     91.97029936	     48.19509000	      0.00000000	      0.00000000
     56.91850000	     -3.72080678	     -3.70182887	     -3.78340776	      1.02098114	      0.91689480	      0.42334853	     25.01659893	      0.50751088	    -13.86168225	     20.45492237	     20.45492237	      2.83141307	     -5.34556627	      0.13457780	     -3.47636504	     -5.11530590	    -10.73609363	     15.86103725	     15.86103725	     22.16061111	     -4.00628673	     -1.18799245	     -7.35604981	      6.43322779	      1.73588993	    -11.94020139	    -11.68193968	    -15.88842801	     23.00214797	     47.61429441	      0.00000000	      0.00000000	     15.94883769	    -13.39041093	     -8.04707318	     91.37226037	     48.16011795	      0.00000000	      0.00000000
     56.93042857	     -3.90138958	     -3.94144147	     -3.53584916	      1.02184710	      0.91648030	      0.42590698	     24.79826604	      0.95327898	    -13.56684007	     20.78966892	     20.78966892	      2.75599993	     -6.65906554	     -0.90230876	     -2.57782570	     -5.83529999	    -10.29529731	     18.23158320	     18.23158320	     22.41137893	     -4.86172386	     -1.38298106	     -6.90979515	      6.65659461	      1.63694884	    -10.65081539	    -11.62462836	    -15.72270150	     22.64372141	     47.61452381	      0.00000000	      0.00000000	     15.66366626	    -13.18407387	     -7.70849203	     88.76942852	     48.09800781	      0.00000000	      0.00000000
     56.94235714	     -3.86690393	     -4.11628955	     -3.33910644	      1.02272689	      0.91691391	      0.42840769	     24.27238480	      1.28588252	    -13.37065844	     20.99762737	     20.99762737	      3.06608842	     -7.14912064	     -1.47796176	     -1.92449335	     -6.44161735	     -9.83709200	     20.50973961	     20.50973961	     22.12490186	     -5.74861816	     -1.74570450	     -6.89004729	      6.83012513	      1.66271928	     -9.38882528	    -11.41233242	    -15.59527997	     22.69396899	     47.60503327	      0.00000000	      0.00000000	     15.03192545	    -12.79950771	     -7.36386431	     87.10614595	     48.04631643	      0.00000000	      0.00000000
     56.95428571	     -3.75252943	     -4.29802492	     -3.12570084	      1.02345645	      0.91772413	      0.43089986	     23.64416892	      1.62116580	    -13.25634769	     21.14914458	     21.14914458	      3.49176239	     -7.61149429	     -1.89805987	     -1.11445420	     -7.07851432	     -9.31275624	     23.17961644	     23.17961644	     21.62619703	     -6.84271935	     -2.33495531	     -6.94437832	      6.98042936	      1.71792657	     -7.96019231	    -11.30079249	    -15.45455447	     22.85170678	     47.59314953	      0.00000000	      0.00000000	     14.40323627	    -12.44387111	     -7.09332528	     85.28428837	     47.99498439	      0.00000000	      0.00000000
     56.96621429	     -3.69265191	     -4.41787649	     -2.94113849	      1.02396125	      0.91877642	      0.43342083	     23.00371331	      1.95488129	    -12.97646637	     21.08127338	     21.08127338	      3.68773085	     -8.25188534	     -2.64694453	     -0.05515161	     -7.64339980	     -8.67600004	     26.04965392	     26.04965392	     20.20068766	     -8.42770132	     -4.24757101	     -6.88935595	      7.05026265	      2.05762001	     -6.38263274	    -11.18856231	    -15.00483820	     22.27537312	     47.56931005	      0.00000000	      0.00000000	     14.35523083	    -11.69502896	     -6.70564128	     81.61118356	     47.91549117	      0.00000000	      0.00000000
     56.97814286	     -3.45224617	     -4.59627234	     -2.71025046	      1.02432833	      0.92019364	      0.43587630	     22.11754098	      2.26853597	    -13.04909906	     20.95751073	     20.95751073	      4.21305024	     -8.24669594	     -2.85885575	      1.12385066	     -8.33542538	     -8.08821683	     29.49240035	     29.49240035	     19.06528063	     -9.63011940	     -4.90236779	     -7.21940595	      7.15744259	      2.07793108	     -4.75901297	    -11.09798293	    -14.90031246	     22.85036305	     47.54544342	      0.00000000	      0.00000000	     13.51517412	    -11.41712353	     -6.42743043	     80.18470327	     47.86787462	      0.00000000	      0.00000000
     56.99007143	     -3.42822827	     -4.65693893	     -2.43535252	      1.02450667	      0.92142664	      0.43814432	     21.38320783	      2.47676262	    -13.10809891	     20.60829009	     20.60829009	      4.50137388	     -8.36744592	     -3.36285018	      2.60706639	     -8.82959955	     -7.23308768	     32.71761246	     32.71761246	     15.73009992	    -12.21437592	     -9.50262932	     -7.12084626	      7.19040884	      2.27427913	     -3.36275580	    -11.08679389	    -13.83044610	     23.27632899	     47.37443147	      0.00000000	      0.00000000	     13.40469868	    -10.84992409	     -5.91303144	     75.97163228	     47.77462652	      0.00000000	      0.00000000
